# xmcd
#
# Track frame offsets:
#	150
#	17190
#	33420
#	50235
#	63445
#	80435
#	97520
#	112280
#	124822
#	140780
#	154645
#	169965
#	185682
#	202520
#	218690
#	244322
#
# Disc length: 3270 seconds
#
# Revision: 1
# Processed by: cddbd v1.5.2PL0 Copyright (c) Steve Scherf et al.
# Submitted via: audiograbber 1.83.01
#
DISCID=e30cc410
DTITLE=Various Artist - sc8345
DYEAR=1900
DGENRE=Karaoke
TTITLE0=T G Sheppard - Do You Wanna Go To Heaven
TTITLE1=Willie Nelson - Forgiving You Was Easy
TTITLE2=Eddy Raven - I Got Mexico
TTITLE3=Keith Whitley - I Wonder Do You Think Of Me
TTITLE4=Ricky Skaggs - I Wouldn't Change You If I Could
TTITLE5=Conway Twitty - I'd Love To Lay You Down
TTITLE6=Merle Haggard - Let's Chase each Other Round The Room Tonight
TTITLE7=Ricky Van Shelton - Life Turned Her That Way
TTITLE8=Nitty Gritty Dirt Band - Modern Day Romance
TTITLE9=Charlie Pride - Never Been So Loved In All My Life
TTITLE10=George Jones - One I loved Back Then (Corvette)
TTITLE11=Billy Joe Royal - Tell It Like It Is
TTITLE12=Steve Wariner - What I Didn't Do
TTITLE13=George Strait - You Look So Good In Love
TTITLE14=George Strait - You're Something Special To Me
TTITLE15=Data - Data Track
EXTD=
EXTT0=
EXTT1=
EXTT2=
EXTT3=
EXTT4=
EXTT5=
EXTT6=
EXTT7=
EXTT8=
EXTT9=
EXTT10=
EXTT11=
EXTT12=
EXTT13=
EXTT14=
EXTT15=
PLAYORDER=
